<svg xmlns="http://www.w3.org/2000/svg" width="100" height="100" viewBox="0 0 100 100">
    <circle fill="#ffffff" cx="50" cy="50" r="45"/>
    <path fill="#ae1f00" d="M100 50c0 27.614-22.386 50-50 50S0 77.614 0 50 22.386 0 50 0s50 22.386 50 50zM53.767 30.833c-.239-.253-.508-.477-.8-.667L52.733 30a4.45 4.45 0 0 0-.683-.367c-.108-.026-.214-.059-.317-.1-.217 0-.45-.15-.683-.2-.694-.133-1.406-.133-2.1 0-.233 0-.467.133-.683.2-.103.041-.209.074-.317.1a4.45 4.45 0 0 0-.683.367l-.233.133c-.292.19-.561.413-.8.667L24.9 52.15c-2.033 2.089-2.013 5.424.046 7.487s5.394 2.092 7.487.063l12.233-12.233L50 42.733l5.333 4.733L67.567 59.7c2.093 2.029 5.428 2.001 7.487-.063s2.08-5.398.046-7.487L53.767 30.833z"/>
    <path fill="#ffe9b3" d="M50 42.733V29.267c.352-.001.704.033 1.05.1.233 0 .467.133.683.2.103.041.209.074.317.1a4.45 4.45 0 0 1 .683.367l.233.133c.292.19.561.413.8.667L75.1 52.15c2.033 2.089 2.013 5.424-.046 7.487s-5.394 2.092-7.487.063L55.333 47.467 50 42.733z"/>
</svg>
